<?xml version="1.0" encoding="UTF-8"?>
<svg width="240px" height="79px" viewBox="0 0 240 79" version="1.1" xmlns="http://www.w3.org/2000/svg" xmlns:xlink="http://www.w3.org/1999/xlink">
    <!-- Generator: Sketch 59.1 (86144) - https://sketch.com -->
    <title>Jesters</title>
    <desc>Created with Sketch.</desc>
    <g id="Symbols" stroke="none" stroke-width="1" fill="none" fill-rule="evenodd">
        <g id="MENU" transform="translate(-250.000000, -50.000000)" fill="#FFC600">
            <path d="M261.949617,71.0380224 L282.962563,71.8898775 C281.373035,94.625823 283.002698,120.983864 268.578718,127.462381 C264.511094,129.339387 256.687281,128.638115 250.698783,127.061032 C250.217475,124.016692 250.111693,115.596456 250,110.570884 C260.692369,111.087659 259.920161,104.472559 260.822418,91.5681048 C261.43502,82.8115441 261.455554,78.1045622 261.949617,71.0380224 Z M312.421568,76.1077739 C313.123462,82.7854098 313.360849,86.2292318 313.544412,90.9169241 C309.010725,91.3938759 305.505612,91.6381075 301.149888,92.0341673 C301.291449,93.3819527 301.413721,94.5458644 301.469101,95.6547072 C302.455361,95.6133279 307.472221,95.0240606 309.457809,95.062951 C309.974585,97.6101162 310.54674,101.88557 310.684879,104.968489 C308.083267,105.551845 304.426948,106.121823 300.880144,106.556151 C301.182867,108.258928 301.360207,109.355015 301.601328,111.064325 C305.293737,110.242338 310.27233,109.285945 313.947938,108.899219 C314.511382,112.494869 314.745658,117.672892 314.825306,121.380857 C313.123462,121.683269 299.390798,123.622499 290.566412,123.930511 C287.921244,109.962016 286.037393,93.8088137 284.182788,79.6956459 C293.197581,78.2523457 303.335217,76.8771814 312.421568,76.1077739 Z M415.513464,76.2698691 C415.279189,82.9798618 415.03589,86.4230615 414.564539,91.0917753 C410.009074,90.9324803 406.503961,90.6870041 402.135481,90.4726403 C402.08819,91.8269593 402.047433,92.9967823 401.947251,94.102825 C402.9304,94.1980287 407.979929,94.3137665 409.94156,94.628312 C410.097744,97.2224567 410.070054,101.536179 409.777909,104.607898 C407.120295,104.823195 403.420108,104.879197 399.847792,104.815728 C399.910328,106.543395 399.932729,107.653793 399.934595,109.379904 C403.704475,109.080293 408.768004,108.825794 412.461657,108.954599 C412.519526,112.593184 412.031063,117.753473 411.594246,121.436548 C409.866268,121.499706 395.997643,121.508418 387.21557,120.585315 C386.540433,106.385344 386.923426,90.1263602 387.050986,75.8921656 C396.178717,75.7182477 406.409379,75.766783 415.513464,76.2698691 Z M484.222209,74.3984634 C484.388038,78.2324338 483.401155,83.1603132 482.209865,85.7541468 C481.016707,85.6732548 477.35261,84.3842716 474.747265,84.4390293 C472.325794,84.4688971 470.04215,85.0382524 469.829342,86.6231137 C469.401858,90.6646033 477.041176,91.0220837 482.376004,93.5692489 C491.451777,97.9542184 492.667958,111.032902 484.710983,116.380797 C478.04517,120.73901 465.72905,119.857287 458.413923,118.708309 C458.034352,113.349836 457.85919,109.89108 458.959633,104.884486 C461.921836,104.716791 472.127919,106.51726 471.964269,101.812145 C471.890843,99.5213456 468.276526,99.0338156 465.812742,98.322277 C460.74579,96.7952847 455.053482,94.7960074 453.726541,88.4515844 C450.538151,72.8500035 472.884571,68.5272587 484.222209,74.3984634 Z M451.719175,84.2075537 C452.032787,88.6933271 451.003281,93.3965755 446.799385,95.9754752 C448.538874,97.8916826 453.420085,103.231178 456.22766,116.002472 C456.22766,116.002472 448.390157,117.847121 441.569405,118.324072 C440.035568,114.046751 437.607563,105.8191 434.093116,105.015158 C434.467086,110.360876 434.514999,113.692693 434.64007,118.12962 C430.671695,118.777379 424.329138,119.035922 420.629573,119.109347 C419.382592,104.808572 418.718344,88.2443764 417.792441,73.2413965 C423.275675,72.1785998 450.636466,68.7217106 451.719175,84.2075537 Z M348.348824,75.6634901 C347.979521,79.4828377 346.316256,84.2255988 344.776508,86.6284028 C343.606063,86.3816821 340.156329,84.5958353 337.569029,84.2875123 C335.166848,83.9795004 332.825646,84.2255988 332.39474,85.7656583 C331.409102,89.7082107 338.923971,91.1253766 343.852161,94.3903028 C352.230085,99.9958084 351.61375,113.116493 342.990039,117.305144 C335.78256,120.692964 323.708805,118.105975 316.625464,115.950203 C316.994767,110.590485 317.302779,107.141373 319.089248,102.336699 C322.046163,102.582797 331.901921,105.78581 332.39474,101.10434 C332.640839,98.8256743 329.129814,97.8394139 326.788924,96.7921734 C321.984249,94.5747988 316.625464,91.8026917 316.193936,85.3347528 C315.208298,69.4416496 337.938332,68.2712043 348.348824,75.6634901 Z M350.530419,71.1092696 C362.863651,71.3541235 378.746488,72.5516365 385.330164,72.8888939 C385.43688,76.6634398 384.939394,84.6558821 384.453108,88.0801034 C382.043771,88.0972151 377.582887,87.6936884 375.251953,87.4690575 C375.111014,93.0170053 374.237069,107.28169 373.133515,117.764051 C369.780541,118.023527 362.451102,117.757828 354.791251,116.913129 C355.374606,107.691439 356.303931,97.9383511 358.089156,85.6514761 C355.938673,85.5005814 350.907189,85.1530569 349.809236,84.9523825 C349.784346,80.0108137 350.348101,75.4805497 350.530419,71.1092696 Z M433.122723,84.9517602 C433.447535,87.8318271 433.623631,90.3509911 433.891819,93.2963939 C440.386515,93.4597335 440.071969,83.6630882 433.122723,84.9517602 Z M282.951051,55.8069892 C285.841074,66.352508 274.782825,71.0591788 267.46832,66.3795757 C262.889209,63.4351063 263.250734,56.0505986 266.761759,52.2048055 C271.763997,48.0009097 281.417214,50.1423703 282.951051,55.8069892 Z" id="Jesters"></path>
        </g>
    </g>
</svg>